# xmcd CD database file
#
# Track frame offsets:
#	150
#	20107
#	68155
#	119496
#
# Disc length: 3178 seconds
#
# Revision: 0
# Processed by: cddbd v1.5.1PL0 Copyright (c) Steve Scherf et al.
# Submitted via: CDex 1.51
#
DISCID=350c6804
DTITLE=Terry Oldfield  - De Profundis  Out Of The Depths II
DYEAR=2005
DGENRE=New Age
TTITLE0=Deep Connection
TTITLE1=De Profundis
TTITLE2=Ocean Song
TTITLE3=Out Of The Depths
EXTD=YEAR: 2005
EXTT0=
EXTT1=
EXTT2=
EXTT3=
PLAYORDER=
